<?xml version="1.0"?>
<svg width="16" height="15" xmlns="http://www.w3.org/2000/svg" xmlns:svg="http://www.w3.org/2000/svg">
 <g class="layer">
  <title>Layer 1</title>
  <g id="Vector">
   <path d="m5.75,10c0.3,0 0.5,-0.2 0.5,-0.5c0,-0.3 -0.2,-0.5 -0.5,-0.5c-0.3,0 -0.5,0.2 -0.5,0.5c0,0.3 0.2,0.5 0.5,0.5z" fill="#7f7f7f" id="svg_1"/>
   <path d="m15,2l-2,0l0,-2l-1,0l0,2l-8,0l0,-2l-1,0l0,2l-2,0c-0.6,0 -1,0.4 -1,1l0,11c0,0.5 0.4,1 1,1l14,0c0.5,0 1,-0.5 1,-1l0,-11c0,-0.6 -0.5,-1 -1,-1zm0,12l-14,0l0,-7l14,0l0,7zm-14,-8l0,-3l2,0l0,2l1,0l0,-2l8,0l0,2l1,0l0,-2l2,0l0,3l-14,0z" fill="#7f7f7f" id="svg_2"/>
   <path d="m8,10c0.3,0 0.5,-0.2 0.5,-0.5c0,-0.3 -0.2,-0.5 -0.5,-0.5c-0.3,0 -0.5,0.2 -0.5,0.5c0,0.3 0.2,0.5 0.5,0.5z" fill="#7f7f7f" id="svg_3"/>
   <path d="m10.25,10c0.3,0 0.5,-0.2 0.5,-0.5c0,-0.3 -0.2,-0.5 -0.5,-0.5c-0.3,0 -0.5,0.2 -0.5,0.5c0,0.3 0.2,0.5 0.5,0.5z" fill="#7f7f7f" id="svg_4"/>
   <path d="m5.75,11c-0.3,0 -0.5,0.2 -0.5,0.5c0,0.3 0.2,0.5 0.5,0.5c0.3,0 0.5,-0.2 0.5,-0.5c0,-0.3 -0.2,-0.5 -0.5,-0.5z" fill="#7f7f7f" id="svg_5"/>
   <path d="m3.5,10c0.3,0 0.5,-0.2 0.5,-0.5c0,-0.3 -0.2,-0.5 -0.5,-0.5c-0.3,0 -0.5,0.2 -0.5,0.5c0,0.3 0.2,0.5 0.5,0.5z" fill="#7f7f7f" id="svg_6"/>
   <path d="m3.5,11c-0.3,0 -0.5,0.2 -0.5,0.5c0,0.3 0.2,0.5 0.5,0.5c0.3,0 0.5,-0.2 0.5,-0.5c0,-0.3 -0.2,-0.5 -0.5,-0.5z" fill="#7f7f7f" id="svg_7"/>
   <path d="m8,11c-0.3,0 -0.5,0.2 -0.5,0.5c0,0.3 0.2,0.5 0.5,0.5c0.3,0 0.5,-0.2 0.5,-0.5c0,-0.3 -0.2,-0.5 -0.5,-0.5z" fill="#7f7f7f" id="svg_8"/>
   <path d="m10.25,11c-0.3,0 -0.5,0.2 -0.5,0.5c0,0.3 0.2,0.5 0.5,0.5c0.3,0 0.5,-0.2 0.5,-0.5c0,-0.3 -0.2,-0.5 -0.5,-0.5z" fill="#7f7f7f" id="svg_9"/>
   <path d="m12.5,10c0.3,0 0.5,-0.2 0.5,-0.5c0,-0.3 -0.2,-0.5 -0.5,-0.5c-0.3,0 -0.5,0.2 -0.5,0.5c0,0.3 0.2,0.5 0.5,0.5z" fill="#7f7f7f" id="svg_10"/>
   <path d="m12.5,11c-0.3,0 -0.5,0.2 -0.5,0.5c0,0.3 0.2,0.5 0.5,0.5c0.3,0 0.5,-0.2 0.5,-0.5c0,-0.3 -0.2,-0.5 -0.5,-0.5z" fill="#7f7f7f" id="svg_11"/>
  </g>
 </g>
</svg>